Coordinates
version=1
nRows=17
nColumns=24
inDegrees=yes

Units are S.I. units (second, meters, Newtons, ...)
Angles are in degrees.

endheader
time	pelvis_tilt	pelvis_list	pelvis_rotation	pelvis_tx	pelvis_ty	pelvis_tz	hip_flexion_r	hip_adduction_r	hip_rotation_r	knee_angle_r	ankle_angle_r	subtalar_angle_r	mtp_angle_r	hip_flexion_l	hip_adduction_l	hip_rotation_l	knee_angle_l	ankle_angle_l	subtalar_angle_l	mtp_angle_l	lumbar_extension	lumbar_bending	lumbar_rotation
      4.72000000	     -1.43537839	     -8.63502374	     -8.03303373	      0.69909875	      0.90868650	     -0.16003371	    -21.68504951	      9.37992852	      1.36527530	     -9.39108046	     14.10503919	     10.92757427	      0.00000000	     30.31851478	     -8.54499527	     -0.90178190	     -9.28672890	      4.89996631	    -16.62920087	      0.00000000	    -23.47667878	      1.62823333	     19.32389157
      4.73000000	     -1.21543224	     -7.91368325	     -7.77499645	      0.71581537	      0.90836989	     -0.16169617	    -21.96241474	      8.35777460	      0.43219391	    -10.76405146	     12.86875821	     11.65493412	      0.00000000	     30.76174698	     -7.42295746	     -0.48520357	    -12.03161309	      3.94656655	    -17.55048008	      0.00000000	    -23.60273003	      0.85151016	     18.79531127
      4.74000000	     -1.00646280	     -7.15833833	     -7.42449960	      0.73276073	      0.90835365	     -0.16345215	    -22.08796681	      7.32388044	     -0.65153792	    -12.35023123	     11.31322825	     12.41158668	      0.00000000	     31.21169028	     -6.22337636	     -0.04851568	    -14.81231901	      2.88302718	    -17.94183661	      0.00000000	    -23.68916293	      0.06103712	     18.16913584
      4.75000000	     -0.75022016	     -6.37771580	     -7.03301471	      0.74996093	      0.90871020	     -0.16524032	    -22.10686212	      6.25600319	     -1.76894493	    -14.18364083	      9.35798489	     13.10415251	      0.00000000	     31.51419509	     -4.97479515	      0.42647415	    -17.46950457	      1.81266614	    -17.97190625	      0.00000000	    -23.80062141	     -0.75414743	     17.48161302
      4.76000000	     -0.41280771	     -5.58449338	     -6.60767471	      0.76746049	      0.90942208	     -0.16707539	    -22.05378456	      5.15088966	     -2.87840401	    -16.26042177	      6.95353955	     13.75581567	      0.00000000	     31.58415858	     -3.69146522	      0.86491552	    -19.91206056	      0.82524355	    -17.85488415	      0.00000000	    -23.95442547	     -1.57519244	     16.82848917
      4.77000000	     -0.01138580	     -4.80170040	     -6.25517848	      0.78509194	      0.91046896	     -0.16880517	    -21.83473848	      4.00160989	     -3.86812270	    -18.69025918	      4.08777273	     14.22349871	      0.00000000	     31.37146078	     -2.45436840	      1.23970478	    -22.03913383	      0.04458827	    -17.75063277	      0.00000000	    -24.16107440	     -2.40936421	     16.21374778
      4.78000000	      0.39496669	     -4.04780356	     -5.98470601	      0.80277700	      0.91172963	     -0.17042469	    -21.37282006	      2.83545170	     -4.66643447	    -21.45434276	      0.75305270	     14.45881897	      0.00000000	     30.93730850	     -1.29511072	      1.48680802	    -23.83664488	     -0.46497286	    -17.79628162	      0.00000000	    -24.34077112	     -3.21822752	     15.71434613
      4.79000000	      0.65437128	     -3.38802006	     -5.89628107	      0.82021058	      0.91299443	     -0.17176575	    -20.43852710	      1.72333623	     -5.11122077	    -24.61135016	     -2.95302380	     14.30989126	      0.00000000	     30.47403283	     -0.34727770	      1.55360763	    -25.36659382	     -0.53556333	    -17.88938407	      0.00000000	    -24.35434870	     -3.95347585	     15.43090894
      4.80000000	      0.88985323	     -2.70116701	     -5.83778219	      0.83741530	      0.91432411	     -0.17314241	    -19.18942805	      0.56987300	     -5.41558071	    -28.07596585	     -6.84696702	     13.91408754	      0.00000000	     29.85759965	      0.61924325	      1.56191920	    -26.58150273	     -0.26078941	    -18.21644531	      0.00000000	    -24.34110468	     -4.70249610	     15.14303830
      4.81000000	      1.05694396	     -1.95645314	     -5.88150077	      0.85421507	      0.91567931	     -0.17438996	    -17.57136415	     -0.63373053	     -5.45391189	    -31.81163927	    -10.73534325	     13.09586045	      0.00000000	     29.16856712	      1.58848711	      1.43456783	    -27.52498076	      0.33837321	    -18.63587179	      0.00000000	    -24.26109651	     -5.51917550	     14.87426876
      4.82000000	      0.93542832	     -1.24135410	     -6.20643893	      0.87029496	      0.91679630	     -0.17523148	    -15.29295838	     -1.77250961	     -4.94488612	    -35.85377951	    -14.39254178	     11.83867643	      0.00000000	     28.69832070	      2.35230983	      0.97828568	    -28.28116629	      1.26174432	    -18.97976439	      0.00000000	    -23.87953198	     -6.34196327	     14.89454263
      4.83000000	      0.56188268	     -0.44969038	     -6.46041533	      0.88582379	      0.91747702	     -0.17600536	    -12.51648456	     -2.84433633	     -4.38551858	    -40.05197237	    -17.54363510	     10.18624759	      0.00000000	     28.46806322	      3.16830578	      0.48845137	    -28.90889321	      2.52122023	    -18.95973581	      0.00000000	    -23.23927988	     -7.20634707	     14.76358144
      4.84000000	      0.20123119	      0.42731120	     -6.73635460	      0.90082153	      0.91819361	     -0.17663676	     -9.58800331	     -3.90297295	     -3.67742039	    -44.24314864	    -20.12415902	      8.20190950	      0.00000000	     28.14947338	      4.03869960	     -0.11418940	    -29.30642820	      3.83728711	    -18.85572651	      0.00000000	    -22.65418226	     -8.17063242	     14.60410492
      4.85000000	     -0.15047842	      1.35422564	     -6.96881312	      0.91542141	      0.91893621	     -0.17717761	     -6.58848287	     -4.89812077	     -2.90877449	    -48.30281704	    -21.96721509	      6.00887106	      0.00000000	     27.75094517	      4.95697266	     -0.74706713	    -29.49155438	      5.16832410	    -18.61807499	      0.00000000	    -22.11399494	     -9.17815023	     14.34313078
      4.86000000	     -0.45478347	      2.28021746	     -7.10824983	      0.92975615	      0.91984883	     -0.17772932	     -3.63570206	     -5.79879916	     -2.15214517	    -52.10140203	    -23.05271337	      3.81777271	      0.00000000	     27.22153864	      5.90864535	     -1.31415556	    -29.47067532	      6.41951321	    -18.25455924	      0.00000000	    -21.66908172	    -10.15770520	     13.95532443
      4.87000000	     -0.59604836	      3.12013844	     -7.16541725	      0.94383334	      0.92115749	     -0.17828931	     -0.90813894	     -6.55388720	     -1.44875459	    -55.54665576	    -23.31110027	      1.70870345	      0.00000000	     26.43528946	      6.82634446	     -1.80369590	    -29.26452330	      7.52471517	    -17.87605359	      0.00000000	    -21.49223928	    -11.02331380	     13.42258300
      4.88000000	     -0.58040077	      3.82146452	     -7.14060391	      0.95782053	      0.92291278	     -0.17894720	      1.54910444	     -7.14771077	     -0.85365244	    -58.56464306	    -22.75613198	     -0.17735191	      0.00000000	     25.37764084	      7.68265455	     -2.09494026	    -28.88730542	      8.51710784	    -17.51323144	      0.00000000	    -21.54652866	    -11.70587853	     12.85381366
